#!OML:ASF E:\emotionWalksFemale\Project 1\Capture day 1\Session 1\Female1.ASF
:FULLY-SPECIFIED
:DEGREES
1369
root -8.07912 15.4768 -26.6095 -2.00334 171.325 354.952
lowerback 8.02346 -2.14421 -5.33827
upperback -2.46059 -3.4605 -0.855973
thorax -6.83582 -1.47134 2.56297
lowerneck 1.57818 -14.324 -17.8753
upperneck 11.0104 -20.3094 14.9149
head 6.46689 -9.96492 5.97875
rclavicle 2.97866e-014 1.5207e-014
rhumerus -43.9943 2.65274 -72.2995
rradius 31.3146
rwrist 15.9072
rhand -4.26808 -51.5738
rfingers 7.12502
rthumb 21.4965 -440.401
lclavicle 2.97866e-014 1.5207e-014
lhumerus -27.5067 6.42276 70.392
lradius 36.5135
lwrist -20.6955
lhand -8.56179 -24.7929
lfingers 7.12502
lthumb 17.3682 4.45111
rfemur -26.5633 -6.83939 24.9465
rtibia 56.2066
rfoot -18.6156 -23.6891
rtoes 15.6566
lfemur -2.02529 -17.4692 -30.1658
ltibia 20.2441
lfoot -22.564 25.1588
ltoes -16.3532
1370
root -8.06973 15.4834 -26.7152 -1.91119 170.958 355.031
lowerback 7.93917 -2.26824 -5.30158
upperback -2.38846 -3.61332 -0.822818
thorax -6.69798 -1.55382 2.59041
lowerneck 1.41613 -14.5658 -17.8138
upperneck 10.7976 -20.6222 14.9036
head 6.47206 -10.1164 5.90845
rclavicle 3.926e-015 -1.49089e-014
rhumerus -43.901 2.29317 -72.006
rradius 31.0046
rwrist 15.8454
rhand -4.69048 -51.0993
rfingers 7.12502
rthumb 21.0908 -439.972
lclavicle 3.926e-015 -1.49089e-014
lhumerus -26.6973 5.88324 70.6921
lradius 36.819
lwrist -19.965
lhand -7.71476 -25.4109
lfingers 7.12502
lthumb 18.1833 3.75924
rfemur -26.9908 -6.90604 25.4136
rtibia 53.8767
rfoot -18.8312 -24.6999
rtoes 12.9901
lfemur -1.60328 -17.1749 -30.1986
ltibia 20.0817
lfoot -22.3136 25.6482
ltoes -19.0538
1371
root -8.06049 15.4854 -26.8197 -1.89638 170.46 355.06
lowerback 7.91562 -2.37131 -5.30864
upperback -2.28097 -3.74563 -0.793649
thorax -6.55688 -1.62517 2.63701
lowerneck 1.05586 -14.7354 -17.5566
upperneck 10.7136 -20.7866 14.6061
head 6.47158 -10.1917 5.72799
rclavicle 7.5973e-015 5.86415e-015
rhumerus -43.6774 1.91887 -71.721
rradius 30.6654
rwrist 16.0655
rhand -4.89181 -50.5139
rfingers 7.12502
rthumb 20.8974 -439.408
lclavicle 7.5973e-015 5.86415e-015
lhumerus -26.1275 5.30651 71.0784
lradius 37.335
lwrist -19.5564
lhand -8.06566 -25.5023
lfingers 7.12502
lthumb 17.8457 3.69888
rfemur -27.2696 -6.88953 25.7772
rtibia 51.4168
rfoot -19.0486 -25.7825
rtoes 12.4831
lfemur -1.00998 -16.926 -30.3312
ltibia 19.7703
lfoot -22.3707 25.9481
ltoes -18.8376
1372
root -8.04783 15.4837 -26.9244 -1.82369 169.845 355.039
lowerback 7.97385 -2.41535 -5.31324
upperback -2.35629 -3.81241 -0.814421
thorax -6.66635 -1.65279 2.63146
lowerneck 1.01786 -14.7871 -17.4065
upperneck 10.6433 -20.842 14.4918
head 6.43529 -10.2197 5.66244
rclavicle -1.30018e-014 -1.0138e-014
rhumerus -43.9379 1.77735 -71.6585
rradius 30.7711
rwrist 15.8477
rhand -5.19891 -50.1904
rfingers 7.12502
rthumb 20.6023 -439.117
lclavicle -1.30018e-014 -1.0138e-014
lhumerus -25.8179 4.79655 71.3681
lradius 37.7847
lwrist -19.2631
lhand -7.85982 -25.6264
lfingers 7.12502
lthumb 18.0437 3.55668
rfemur -27.4846 -6.77429 26.1266
rtibia 48.8414
rfoot -19.2021 -27.0689
rtoes 13.5994
lfemur -0.491604 -16.5053 -30.4738
ltibia 19.4787
lfoot -22.5071 26.0404
ltoes -18.9288
1373
root -8.03198 15.4791 -27.0304 -1.74391 169.235 355.022
lowerback 7.73481 -2.46859 -5.38719
upperback -2.2767 -3.87099 -0.803826
thorax -6.43447 -1.68768 2.67505
lowerneck 1.15081 -14.7442 -17.4822
upperneck 10.2885 -20.8187 14.8156
head 6.34206 -10.212 5.79314
rclavicle 4.15243e-014 7.95139e-015
rhumerus -44.1015 1.91762 -71.8096
rradius 31.2595
rwrist 15.2916
rhand -5.19253 -50.3489
rfingers 7.12502
rthumb 20.6084 -439.275
lclavicle 4.15243e-014 7.95139e-015
lhumerus -25.3261 3.10977 71.8619
lradius 38.3024
lwrist -18.1248
lhand -8.17611 -25.1262
lfingers 7.12502
lthumb 17.7394 4.08467
rfemur -27.6146 -6.56132 26.4786
rtibia 46.2092
rfoot -19.6735 -28.2741
rtoes 14.684
lfemur 0.00449443 -15.9426 -30.5785
ltibia 19.2212
lfoot -22.9946 25.9093
ltoes -18.4608
1374
root -8.01565 15.4752 -27.1303 -1.67581 168.745 354.963
lowerback 7.663 -2.54513 -5.42551
upperback -2.25192 -3.97229 -0.847298
thorax -6.35935 -1.73915 2.65795
lowerneck 1.56363 -14.6611 -17.9268
upperneck 9.85063 -20.8016 15.4591
head 6.25412 -10.2212 6.09453
rclavicle -8.72789e-016 5.26779e-015
rhumerus -44.2488 1.88252 -71.9094
rradius 31.6032
rwrist 15.0298
rhand -5.00893 -50.2608
rfingers 7.12502
rthumb 20.7848 -439.168
lclavicle -8.72789e-016 5.26779e-015
lhumerus -24.8334 1.99772 72.204
lradius 38.7576
lwrist -17.6004
lhand -8.58647 -24.8441
lfingers 7.12502
lthumb 17.3445 4.40196
rfemur -27.7061 -6.23433 26.727
rtibia 43.6161
rfoot -20.7648 -29.3509
rtoes 16.7609
lfemur 0.54482 -15.4763 -30.7039
ltibia 18.7655
lfoot -23.4372 25.8411
ltoes -17.8048
1375
root -7.99938 15.4748 -27.2188 -1.61744 168.266 354.935
lowerback 8.22954 -2.6379 -5.61224
upperback -2.53224 -4.16289 -0.759859
thorax -6.9495 -1.797 2.91926
lowerneck 1.64887 -14.8133 -17.9923
upperneck 9.88374 -21.009 15.2871
head 6.27339 -10.3361 6.02289
rclavicle 2.5637e-014 1.41137e-014
rhumerus -44.6374 2.22625 -71.9583
rradius 31.8336
rwrist 14.7484
rhand -5.01896 -49.9115
rfingers 7.12502
rthumb 20.7752 -438.819
lclavicle 2.5637e-014 1.41137e-014
lhumerus -24.8626 1.64236 72.4608
lradius 39.3107
lwrist -17.7631
lhand -8.37968 -25.0867
lfingers 7.12502
lthumb 17.5435 4.14179
rfemur -27.7868 -5.81843 26.9944
rtibia 41.0718
rfoot -22.1987 -30.5255
rtoes 19.6195
lfemur 1.09861 -15.1422 -30.7824
ltibia 18.1855
lfoot -23.2418 25.8466
ltoes -16.6518
1376
root -7.97972 15.4777 -27.3327 -1.6922 167.655 354.632
lowerback 8.09199 -2.66178 -5.89627
upperback -2.5984 -4.21766 -0.809166
thorax -6.92159 -1.81039 3.0256
lowerneck 2.09683 -14.7709 -18.4028
upperneck 9.56798 -21.0331 15.683
head 6.19456 -10.3739 6.23727
rclavicle 3.65267e-015 2.5842e-015
rhumerus -44.953 2.52769 -72.0179
rradius 32.1297
rwrist 14.4976
rhand -3.76992 -50.142
rfingers 7.12502
rthumb 21.9749 -438.914
lclavicle 3.65267e-015 2.5842e-015
lhumerus -24.8096 1.20698 72.7955
lradius 39.8283
lwrist -17.9925
lhand -8.05115 -25.4404
lfingers 7.12502
lthumb 17.8596 3.75955
rfemur -27.6808 -5.66575 26.9661
rtibia 38.5659
rfoot -23.1564 -31.7134
rtoes 20.9384
lfemur 1.92782 -14.8216 -31.2827
ltibia 17.6185
lfoot -23.6862 25.8781
ltoes -13.7142
1377
root -7.95796 15.4786 -27.4468 -1.55587 166.735 354.461
lowerback 7.73698 -2.63536 -6.01301
upperback -2.66114 -4.17028 -0.865429
thorax -6.78541 -1.78568 3.00573
lowerneck 2.06806 -14.7291 -18.3412
upperneck 9.50022 -20.9721 15.6978
head 6.16217 -10.3429 6.24225
rclavicle -2.54569e-014 -3.67752e-015
rhumerus -45.2015 2.63355 -72.1302
rradius 32.5553
rwrist 14.3498
rhand -2.33132 -50.9443
rfingers 7.12502
rthumb 23.3556 -439.547
lclavicle -2.54569e-014 -3.67752e-015
lhumerus -24.6608 0.557229 73.0496
lradius 40.3185
lwrist -17.7685
lhand -7.93288 -25.6701
lfingers 7.12502
lthumb 17.9734 3.51942
rfemur -27.7273 -5.21666 27.1117
rtibia 36.0973
rfoot -23.8987 -33.2259
rtoes 20.731
lfemur 2.55727 -14.3812 -31.6026
ltibia 17.0007
lfoot -24.2143 26.2214
ltoes -12.06
1378
root -7.93515 15.4782 -27.5446 -1.41921 166.4 354.526
lowerback 7.91636 -2.8251 -6.00626
upperback -2.79431 -4.44113 -0.834217
thorax -7.00436 -1.90696 3.08341
lowerneck 1.90026 -14.6753 -18.0568
upperneck 9.54544 -20.8602 15.5022
head 6.13098 -10.2791 6.14738
rclavicle 1.2037e-013 3.67752e-015
rhumerus -45.4939 2.66607 -72.2307
rradius 32.9654
rwrist 14.2799
rhand -2.83069 -50.4178
rfingers 7.12502
rthumb 22.8765 -439.081
lclavicle 1.2037e-013 3.67752e-015
lhumerus -24.6412 -0.00216682 73.2032
lradius 40.8288
lwrist -17.9109
lhand -8.00444 -25.7553
lfingers 7.12502
lthumb 17.9046 3.44057
rfemur -27.7092 -4.61689 27.3265
rtibia 33.7622
rfoot -25.4944 -35.0199
rtoes 22.0724
lfemur 3.20954 -13.8749 -31.5312
ltibia 16.1711
lfoot -23.8255 26.3503
ltoes -12.9624
